<svg version="1.1" id="Layer_1" xmlns="http://www.w3.org/2000/svg" xmlns:xlink="http://www.w3.org/1999/xlink" x="0px" y="0px"
	 width="100%" viewBox="50 20 250 320" enable-background="new 0 0 343 346" xml:space="preserve">
<path fill="#D7A951" opacity="1.000000" stroke="none" 
	d="
M118.051270,203.971359 
	C121.977676,203.703751 125.905434,203.454391 129.830093,203.163223 
	C133.469040,202.893234 136.536041,206.242905 136.728516,211.234802 
	C136.972382,217.559402 136.931381,223.895416 136.986496,230.226761 
	C137.106094,243.962234 149.134399,257.316498 162.592636,260.101715 
	C174.420822,262.549591 184.789719,260.351074 193.991074,252.936722 
	C200.175766,247.953171 204.146072,241.277542 204.916916,233.266830 
	C205.629654,225.859924 205.719681,218.389450 205.972000,210.943192 
	C206.142654,205.907120 208.284103,203.194855 213.442993,203.130615 
	C228.438644,202.943893 243.439774,202.934952 258.435211,203.128860 
	C263.864777,203.199066 266.023071,205.846054 265.986237,211.373840 
	C265.856689,230.809067 259.340210,248.456360 250.182312,265.179718 
	C242.123917,279.895264 231.700867,292.890778 219.300140,304.250854 
	C206.342697,316.120941 192.217957,326.159454 174.827560,330.233276 
	C170.778061,331.181915 165.899857,330.560822 161.864807,329.245300 
	C148.144547,324.772156 136.100632,317.075073 125.301529,307.642517 
	C108.199158,292.704315 94.544876,275.012299 85.252449,254.213455 
	C79.284180,240.854935 75.204628,226.971268 74.895287,212.119232 
	C74.791840,207.152908 76.590500,204.349213 81.953461,203.329437 
	C94.481476,203.696793 106.266373,203.834076 118.051270,203.971359 
M250.340118,216.781250 
	C240.068161,216.781250 229.796219,216.781250 219.515610,216.781250 
	C218.990738,223.114166 218.766403,229.045288 217.957184,234.895508 
	C216.402725,246.133392 211.300003,255.601135 202.704727,263.065765 
	C191.914978,272.436188 179.051056,275.265472 165.264114,273.910126 
	C151.156448,272.523254 139.771774,266.021118 131.550873,254.189850 
	C124.643661,244.249252 122.913055,233.051666 123.246956,221.373047 
	C123.364723,217.253708 122.097389,215.749268 117.846466,215.902969 
	C109.695747,216.197693 101.525360,216.083633 93.366295,215.948318 
	C89.921013,215.891205 88.309669,217.044312 88.963684,220.639572 
	C89.255859,222.245682 89.315643,223.895859 89.637634,225.494461 
	C92.487961,239.645538 98.322952,252.550919 105.984329,264.707520 
	C119.655861,286.400665 137.190247,303.763092 160.582687,315.025421 
	C166.902512,318.068115 172.372528,317.864563 178.545319,315.353882 
	C194.549164,308.844666 207.574493,298.342957 218.976776,285.677002 
	C232.722885,270.407471 243.505356,253.335129 249.233047,233.422333 
	C250.771942,228.072220 253.571869,222.769714 250.340118,216.781250 
z"/>
<path fill="#D7A950" opacity="1.000000" stroke="none" 
	d="
M232.732025,57.772617 
	C224.999252,73.348976 217.010849,88.430840 210.202560,104.027832 
	C203.105667,120.286011 199.408691,137.680176 197.196869,155.212265 
	C195.399216,169.461502 194.718109,183.874908 194.111557,198.239548 
	C193.871017,203.936188 195.695190,209.701324 195.656448,215.429031 
	C195.574432,227.552917 196.596741,240.410553 184.291916,248.218811 
	C169.753189,257.444550 149.655151,250.456802 146.964600,231.737579 
	C144.234268,212.741394 148.074890,194.430695 152.461029,176.151596 
	C158.964233,149.049713 169.406464,123.386284 182.701218,99.060738 
	C191.631714,82.720497 202.289825,67.275703 212.848923,51.892883 
	C219.017990,42.905575 226.480362,34.801582 233.428192,26.355547 
	C236.018600,23.206539 239.216919,21.709484 242.886505,24.543415 
	C246.500519,27.334429 246.333847,30.567472 244.196472,34.545387 
	C240.169174,42.040737 236.697601,49.834682 232.732025,57.772617 
M164.569305,237.050293 
	C171.554825,241.401886 177.057495,240.706451 179.803085,233.844116 
	C181.856491,228.711761 182.435760,222.769699 182.589630,217.158524 
	C182.746552,211.436401 180.993134,205.665009 181.120102,199.938324 
	C181.372467,188.556259 182.354233,177.190796 183.011536,165.817154 
	C183.960831,149.390961 187.069061,133.360397 191.787476,117.621681 
	C193.118408,113.182159 194.444565,108.741203 195.772919,104.300911 
	C189.534180,114.972160 183.625977,125.813461 179.232040,137.237198 
	C174.033051,150.753967 169.775116,164.668549 165.780655,178.603134 
	C161.426544,193.792343 158.542252,209.360077 159.192841,225.232727 
	C159.351105,229.094025 162.276825,232.841873 164.569305,237.050293 
z"/>
<path fill="#24464C" opacity="1.000000" stroke="none" 
	d="
M172.016724,83.011185 
	C175.178482,85.023956 176.686111,87.899071 175.410645,91.480026 
	C174.204269,94.867020 171.131470,95.092171 167.944168,95.035095 
	C160.955933,94.909973 153.955612,95.202782 146.976456,94.921722 
	C142.462463,94.739944 140.798340,96.241066 140.858765,100.897804 
	C141.072556,117.372490 140.889389,133.851944 140.969574,150.329041 
	C140.986511,153.808426 140.215790,156.569778 135.837128,157.954559 
	C119.339699,158.140732 103.666031,158.254684 87.743393,158.660187 
	C87.337051,164.054504 87.005531,169.159454 87.070694,174.259338 
	C87.137512,179.489532 87.592339,184.714767 87.877350,189.942169 
	C84.091400,195.336121 78.836914,195.722107 75.998688,189.949600 
	C76.004288,176.388489 76.003632,163.692947 76.002975,150.997421 
	C76.810051,149.420853 77.617126,147.844269 78.998627,146.131302 
	C79.573044,145.994904 80.024040,146.088760 80.384529,146.283356 
	C95.749771,146.610565 110.754440,146.757767 125.759483,146.832275 
	C126.502457,146.835968 127.248573,146.206848 127.985397,145.671158 
	C127.977585,145.469940 127.978844,145.067200 127.978844,145.067200 
	C128.026031,127.312325 127.931831,109.554817 128.260849,91.805168 
	C128.315140,88.877266 130.224289,85.983749 132.118958,83.024673 
	C145.980026,82.987076 158.998383,82.999130 172.016724,83.011185 
z"/>
<path fill="#24464D" opacity="1.000000" stroke="none" 
	d="
M211.941940,158.023346 
	C210.373383,156.697510 207.459122,155.313126 207.513733,154.057938 
	C207.630905,151.364944 209.280029,148.738617 210.923355,146.041763 
	C211.708344,146.030670 211.871887,146.062836 212.395020,146.289276 
	C228.227173,146.593063 243.699692,146.711411 259.172455,146.779572 
	C259.783569,146.782272 260.396759,146.306702 261.172394,145.993530 
	C261.335785,145.933090 261.681091,145.979904 261.681091,145.979904 
	C262.699463,146.757477 263.717804,147.535034 264.870972,149.086517 
	C265.005219,163.655121 265.004639,177.449829 265.004089,191.244522 
	C261.684509,195.615540 258.056274,194.493515 254.177338,191.044800 
	C254.001923,182.525497 254.077988,174.803391 253.933899,167.085388 
	C253.883270,164.373657 253.292511,161.672028 252.948364,158.965775 
	C252.948364,158.965775 253.027084,158.986588 252.923660,158.805222 
	C252.645905,158.334671 252.395050,158.148758 251.595001,158.051422 
	C238.062195,158.032257 225.002075,158.027802 211.941940,158.023346 
z"/>
<path fill="#7D8688" opacity="1.000000" stroke="none" 
	d="
M212.035446,146.095001 
	C211.871887,146.062836 211.708344,146.030670 211.294983,146.008240 
	C211.559341,145.698349 212.074188,145.098587 212.587616,145.099762 
	C228.791046,145.137512 244.994370,145.233627 261.439392,145.650391 
	C261.681091,145.979904 261.335785,145.933090 260.702881,145.962845 
	C244.058441,146.026733 228.046951,146.060867 212.035446,146.095001 
z"/>
<path fill="#7F898E" opacity="1.000000" stroke="none" 
	d="
M127.512726,145.044250 
	C127.978844,145.067200 127.977585,145.469940 127.518074,145.708344 
	C111.380386,145.994080 95.702217,146.041412 80.024040,146.088760 
	C80.024040,146.088760 79.573044,145.994904 79.342834,146.001953 
	C80.805336,145.678696 82.496582,145.070755 84.190994,145.061798 
	C98.475868,144.986252 112.761322,145.020248 127.512726,145.044250 
z"/>
<path fill="#6C6E47" opacity="1.000000" stroke="none" 
	d="
M87.992363,158.368622 
	C103.666031,158.254684 119.339699,158.140732 135.477783,158.025085 
	C134.559219,158.344788 133.177414,158.939499 131.793045,158.945496 
	C117.535118,159.007217 103.276779,158.973724 88.524857,158.812286 
	C88.031166,158.657791 87.992363,158.368622 87.992363,158.368622 
z"/>
<path fill="#4F6868" opacity="1.000000" stroke="none" 
	d="
M265.314148,190.927185 
	C265.004639,177.449829 265.005219,163.655121 264.998474,149.383850 
	C265.308929,149.451797 265.905792,149.997482 265.903564,150.540726 
	C265.849030,163.897263 265.730957,177.253525 265.314148,190.927185 
z"/>
<path fill="#6A7047" opacity="1.000000" stroke="none" 
	d="
M212.195892,158.373108 
	C225.002075,158.027802 238.062195,158.032257 251.598038,158.259583 
	C252.073746,158.482468 252.106934,158.898041 252.106934,158.898041 
	C238.887909,158.839645 225.668884,158.781250 212.195892,158.373108 
z"/>
<path fill="#677876" opacity="1.000000" stroke="none" 
	d="
M171.792526,82.638168 
	C158.998383,82.999130 145.980026,82.987076 132.495255,82.994781 
	C132.728760,82.686867 133.429138,82.072929 134.128571,82.074013 
	C146.608566,82.093346 159.088425,82.187263 171.792526,82.638168 
z"/>
<path fill="#466B70" opacity="1.000000" stroke="none" 
	d="
M75.655243,151.248718 
	C76.003632,163.692947 76.004288,176.388489 76.004120,189.554474 
	C75.683975,189.493164 75.084885,188.960632 75.086365,188.429764 
	C75.120659,176.119751 75.220116,163.809906 75.655243,151.248718 
z"/>
<path fill="#F3C491" opacity="1.000000" stroke="none" 
	d="
M117.833984,203.591049 
	C106.266373,203.834076 94.481476,203.696793 82.316650,203.380890 
	C93.830048,203.205078 105.723366,203.207901 117.833984,203.591049 
z"/>
<path fill="#577278" opacity="1.000000" stroke="none" 
	d="
M87.743393,158.660187 
	C87.992363,158.368622 88.031166,158.657791 88.062157,158.799561 
	C88.054436,168.965439 88.015717,178.989548 87.927177,189.477905 
	C87.592339,184.714767 87.137512,179.489532 87.070694,174.259338 
	C87.005531,169.159454 87.337051,164.054504 87.743393,158.660187 
z"/>
<path fill="#5D7173" opacity="1.000000" stroke="none" 
	d="
M252.967575,159.437317 
	C253.292511,161.672028 253.883270,164.373657 253.933899,167.085388 
	C254.077988,174.803391 254.001923,182.525497 254.013275,190.732208 
	C253.674728,189.517349 253.062057,187.819489 253.042068,186.114685 
	C252.939667,177.380402 252.989914,168.644318 252.967575,159.437317 
z"/>
<path fill="#5D7173" opacity="1.000000" stroke="none" 
	d="
M252.328232,158.959778 
	C252.106934,158.898041 252.073746,158.482468 252.070709,158.274292 
	C252.395050,158.148758 252.645905,158.334671 252.913574,158.844666 
	C253.006927,159.065460 252.549530,159.021530 252.328232,158.959778 
z"/>
<path fill="#203B3F" opacity="1.000000" stroke="none" 
	d="
M80.384529,146.283356 
	C95.702217,146.041412 111.380386,145.994080 127.525894,145.909546 
	C127.248573,146.206848 126.502457,146.835968 125.759483,146.832275 
	C110.754440,146.757767 95.749771,146.610565 80.384529,146.283356 
z"/>
<path fill="#203B3F" opacity="1.000000" stroke="none" 
	d="
M212.395020,146.289276 
	C228.046951,146.060867 244.058441,146.026733 260.539490,146.023285 
	C260.396759,146.306702 259.783569,146.782272 259.172455,146.779572 
	C243.699692,146.711411 228.227173,146.593063 212.395020,146.289276 
z"/>
</svg>



