<svg version="1.1" id="Layer_1" xmlns="http://www.w3.org/2000/svg" xmlns:xlink="http://www.w3.org/1999/xlink" x="0px" y="0px"
	 width="100%" viewBox="0 0 1024 1024" enable-background="new 0 0 1024 1024" xml:space="preserve">
<path fill="#000000" opacity="1.000000" stroke="none" 
	d="
M350.086975,557.708557 
	C346.240356,542.772095 343.240143,528.135010 343.621948,512.988220 
	C343.834503,504.556854 347.429382,500.663513 355.713867,500.653687 
	C383.538605,500.620697 411.363464,500.626740 439.188171,500.678833 
	C447.983246,500.695282 451.830841,504.652557 451.997772,513.585693 
	C452.277283,528.543884 451.276520,543.575012 455.207733,558.291748 
	C462.708862,586.372742 483.258209,599.787781 509.712891,601.611267 
	C528.432312,602.901550 545.491150,598.261719 559.006409,584.387756 
	C569.662354,573.448914 575.401550,560.211670 575.791870,544.893982 
	C576.050659,534.737061 575.796570,524.568115 575.898132,514.405823 
	C575.992493,504.963928 579.577576,500.616486 588.925171,500.446960 
	C606.071350,500.136047 623.230530,500.560181 640.384399,500.641632 
	C650.547791,500.689880 660.711731,500.630341 670.875000,500.689941 
	C680.447937,500.746063 684.273376,504.562256 684.209473,513.954285 
	C684.006714,543.758057 675.404846,571.411804 662.150146,597.728516 
	C637.367676,646.933044 601.498901,685.822876 553.293884,712.889587 
	C542.390747,719.011597 530.630737,723.353271 518.712341,727.188477 
	C515.894104,728.095337 513.285583,728.059021 510.434296,727.247009 
	C477.485168,717.863342 449.384552,700.148926 424.621094,676.925476 
	C389.396667,643.891541 363.993652,604.607178 350.086975,557.708557 
M594.976501,569.315063 
	C589.865906,584.945862 581.055969,598.053894 567.990112,608.096924 
	C546.984131,624.243225 522.902527,628.456482 497.506104,624.004761 
	C464.068024,618.143372 442.294708,598.364136 432.747955,565.595093 
	C429.270813,553.659851 428.432007,541.365417 428.805847,529.005066 
	C428.931854,524.839539 427.289062,523.185303 423.278656,523.402344 
	C406.797394,524.294495 390.311829,524.200378 373.835052,523.355591 
	C369.047333,523.110107 367.716064,525.232910 368.407898,529.646606 
	C369.774078,538.362549 371.316101,547.033020 373.928070,555.476379 
	C386.865234,597.297363 410.692413,632.114685 442.634705,661.589111 
	C461.815826,679.288330 483.482910,693.055725 508.333984,701.543030 
	C512.147400,702.845398 515.706604,702.891785 519.527649,701.609680 
	C531.274414,697.668274 542.362122,692.351685 552.888123,685.874207 
	C578.207825,670.293091 599.043396,649.826111 616.821533,626.203735 
	C638.038025,598.012695 653.598206,567.199768 659.204712,531.938232 
	C660.383728,524.523132 660.055176,523.998169 652.375427,523.976318 
	C636.879639,523.932251 621.378906,524.122131 605.891113,523.755432 
	C601.155884,523.643250 599.885620,525.087158 599.932861,529.601257 
	C600.070740,542.772217 599.542725,555.913452 594.976501,569.315063 
z"/>
<path fill="#000000" opacity="1.000000" stroke="none" 
	d="
M563.509766,266.576965 
	C581.961182,237.717575 602.705627,211.057236 625.064941,185.626007 
	C627.270874,183.117020 629.454712,180.519165 632.913025,179.735916 
	C637.649353,178.663223 641.901001,179.640182 645.194397,183.364258 
	C648.628235,187.247192 649.275452,191.805008 647.123230,196.413773 
	C641.982239,207.422440 636.753479,218.395889 631.283325,229.243927 
	C615.620972,260.304260 598.022888,290.388123 584.904053,322.729065 
	C572.937805,352.228424 565.683044,382.879791 561.202209,414.293732 
	C557.433533,440.714722 555.370056,467.257965 556.371887,493.929260 
	C556.964478,509.707611 558.891907,525.417908 558.306885,541.269531 
	C557.575623,561.083679 546.456665,577.911011 529.418518,584.231262 
	C503.215332,593.951050 475.679718,577.900146 470.876221,549.575684 
	C468.330109,534.562561 469.282532,519.362427 471.227600,504.296906 
	C480.670410,431.157776 507.590973,364.189636 543.335938,300.336792 
	C549.684692,288.995636 556.347839,277.850922 563.509766,266.576965 
M534.792542,533.420044 
	C535.276489,520.235901 533.008545,507.192627 532.754211,494.050629 
	C532.267029,468.885712 533.457214,443.779694 536.696350,418.828094 
	C540.859070,386.761871 546.975708,355.108887 558.716064,324.790314 
	C559.761536,322.090393 561.415710,319.546661 561.734802,315.274780 
	C560.566223,316.834961 560.006104,317.395569 559.664246,318.067261 
	C554.755676,327.711365 549.672058,337.273193 545.024109,347.041992 
	C519.125488,401.473785 498.952789,457.671204 493.657562,518.255371 
	C492.736328,528.795593 491.785217,539.567017 495.309174,549.964233 
	C498.021698,557.967346 503.856171,562.388733 511.969910,562.763550 
	C521.362061,563.197510 528.383423,559.225037 531.836365,551.475464 
	C534.260437,546.034973 534.783081,540.254700 534.792542,533.420044 
z"/>
<path fill="#000000" opacity="1.000000" stroke="none" 
	d="
M512.452759,309.178619 
	C497.514893,309.194275 483.020721,309.171509 468.526581,309.175903 
	C461.990997,309.177887 461.925507,309.232849 461.917450,315.939575 
	C461.894867,334.754913 461.959320,353.570496 461.881256,372.385559 
	C461.833557,383.873444 461.549988,395.360138 461.439514,406.847992 
	C461.341766,417.012665 457.149261,421.236420 446.742859,421.251373 
	C422.419128,421.286316 398.095276,421.244507 373.771484,421.246643 
	C367.260498,421.247223 367.251434,421.268463 367.253357,427.914673 
	C367.257599,442.575562 367.337494,457.236816 367.250916,471.897125 
	C367.214752,478.023895 363.382324,482.886414 358.062836,484.096100 
	C352.878418,485.275085 347.685394,482.836212 344.965729,478.024628 
	C343.850800,476.052063 343.649872,473.941925 343.650940,471.752716 
	C343.660889,450.927551 343.621643,430.102264 343.681580,409.277283 
	C343.702667,401.959045 348.135803,397.695953 355.616669,397.688141 
	C380.773438,397.661896 405.930298,397.689667 431.087097,397.690247 
	C437.838379,397.690399 437.830872,397.679718 437.823578,390.729309 
	C437.792633,361.240936 437.787354,331.752472 437.712799,302.264221 
	C437.703308,298.522369 438.110107,294.928619 440.120209,291.713837 
	C442.683868,287.613617 446.222290,285.521118 451.302612,285.563812 
	C471.126862,285.730469 490.953156,285.648987 510.778625,285.680481 
	C517.927795,285.691833 521.273010,288.133728 522.811462,294.362762 
	C524.190857,299.947784 521.358276,305.606354 515.751831,308.320129 
	C514.872070,308.745972 513.851807,308.881531 512.452759,309.178619 
z"/>
<path fill="#000000" opacity="1.000000" stroke="none" 
	d="
M614.000000,421.298767 
	C605.670288,421.281586 597.839111,421.352539 590.011292,421.221130 
	C582.567200,421.096161 576.875610,415.503601 577.102417,408.777161 
	C577.326721,402.123230 582.379211,397.703400 589.887451,397.699005 
	C617.208313,397.683105 644.529236,397.682892 671.850098,397.704865 
	C680.705872,397.711975 685.085510,401.931458 685.135864,410.826233 
	C685.251038,431.149750 685.275452,451.474274 685.209839,471.798004 
	C685.185425,479.367493 680.243042,484.309021 673.172485,484.273041 
	C666.404297,484.238586 661.739380,479.310730 661.700806,471.886963 
	C661.622925,456.894135 661.512695,441.898651 661.732361,426.908905 
	C661.797180,422.480957 660.312744,421.138885 655.979858,421.207703 
	C642.156250,421.427277 628.327026,421.294952 614.000000,421.298767 
z"/>
</svg>
