<?xml version="1.0" encoding="utf-8"?>
<!-- Generator: Adobe Illustrator 25.4.1, SVG Export Plug-In . SVG Version: 6.00 Build 0)  -->
<svg version="1.1" xmlns="http://www.w3.org/2000/svg" xmlns:xlink="http://www.w3.org/1999/xlink" x="0px" y="0px"
	 viewBox="0 0 850.4 850.4" style="enable-background:new 0 0 850.4 850.4;" xml:space="preserve">
<style type="text/css">
	.st0{fill:#BF9857;}
	.st1{fill:#1C5765;}
	.st2{display:none;}
	.st3{display:inline;}
	.st4{fill:#FFFFFF;}
</style>
<g id="REV2">
	<g>
		<g>
			<g>
				<g>
					<path class="st0" d="M425.7,378.2c-1.1,0-2.1-0.1-3.2-0.2c-7.3-0.9-13.2-4-17.3-9.3c-8.2-10.5-7.4-27-5.5-41.6
						c8.2-64.6,45.5-141.2,95-195.2c2.3-2.6,6.2-3,9.1-1.1c2.9,1.9,4,5.7,2.5,8.8c-6.6,14.3-12.8,26-18.8,37.4
						c-15.7,29.7-28.1,53.2-34,101.5c-3.5,28.7-2.7,42.7-1.4,55.6c0.7,6.8,0.6,12.9-0.2,19.8l-0.2,1.5c-0.9,6.9-4.4,13.1-9.9,17.4
						C437.1,376.3,431.5,378.2,425.7,378.2z M456,209.4c-22.1,39.1-37.5,81.4-42.3,119.4c-0.9,7.2-3.1,23.9,2.6,31.2
						c1.8,2.3,4.3,3.6,7.9,4c3.2,0.4,6.3-0.5,8.9-2.5c2.6-2,4.2-4.8,4.6-8l0.2-1.5c0.7-5.8,0.8-10.9,0.2-16.7c0,0,0,0,0,0
						c-1.3-13.7-2.2-28.6,1.5-58.7C443,247.8,448.8,227.4,456,209.4z"/>
				</g>
			</g>
			<g>
				<g>
					<path class="st1" d="M328.4,315.2c-3.9,0-7.1-3.2-7.1-7.1v-39c0-3.9,3.2-7.1,7.1-7.1h57.7c3.9,0,7.1,3.2,7.1,7.1
						c0,3.9-3.2,7.1-7.1,7.1h-50.6v32C335.5,312,332.3,315.2,328.4,315.2z"/>
				</g>
			</g>
			<g>
				<g>
					<path class="st1" d="M522,315.2c-3.9,0-7.1-3.2-7.1-7.1v-32h-43.7c-3.9,0-7.1-3.2-7.1-7.1c0-3.9,3.2-7.1,7.1-7.1H522
						c3.9,0,7.1,3.2,7.1,7.1v39C529,312,525.9,315.2,522,315.2z"/>
				</g>
			</g>
			<g>
				<path class="st0" d="M425.2,464.2c-0.5,0-1.1-0.1-1.6-0.2c-51.6-12.3-102.2-77.5-102.2-131.7c0-3.9,3.2-7.1,7.1-7.1h52.7
					c3.9,0,7.1,3.2,7.1,7.1v17.8c0,18.1,11.8,37.7,37.7,37.7c25.9,0,37.7-19.5,37.7-37.7v-17.8c0-3.9,3.2-7.1,7.1-7.1H522
					c3.9,0,7.1,3.2,7.1,7.1c0,54.2-50.6,119.4-102.2,131.7C426.3,464.1,425.7,464.2,425.2,464.2z M335.8,339.3
					c4.1,45.7,46.9,99.3,89.4,110.5c42.5-11.2,85.3-64.8,89.4-110.5h-36.9v10.8c0,25.7-17.8,51.8-51.8,51.8c-34,0-51.8-26-51.8-51.8
					v-10.8H335.8z"/>
			</g>
			<g>
				<g>
					<path class="st1" d="M386.1,276.2c-3.9,0-7.1-3.2-7.1-7.1v-68.7c0-3.9,3.2-7.1,7.1-7.1h38.1c3.9,0,7.1,3.2,7.1,7.1
						c0,3.9-3.2,7.1-7.1,7.1h-31.1v61.6C393.2,273,390,276.2,386.1,276.2z"/>
				</g>
			</g>
		</g>
		<g>
			<path class="st1" d="M190.7,557.5c-4.5,0-8.8-0.6-12.9-1.7c-4.1-1.1-7.5-2.6-10.1-4.3l5.1-11.4c2.4,1.6,5.3,2.8,8.4,3.9
				s6.4,1.5,9.5,1.5c2.1,0,3.8-0.2,5.1-0.6c1.3-0.4,2.2-0.9,2.8-1.6c0.6-0.6,0.9-1.4,0.9-2.3c0-1.2-0.6-2.2-1.7-3
				c-1.1-0.7-2.6-1.3-4.4-1.8c-1.8-0.5-3.8-0.9-6-1.4c-2.2-0.5-4.4-1.1-6.6-1.8c-2.2-0.7-4.2-1.7-6-2.8c-1.8-1.2-3.3-2.7-4.4-4.6
				c-1.1-1.9-1.7-4.3-1.7-7.2c0-3.3,0.9-6.2,2.7-8.9c1.8-2.6,4.5-4.8,8.1-6.4c3.6-1.6,8-2.4,13.4-2.4c3.6,0,7.1,0.4,10.5,1.2
				c3.5,0.8,6.5,2,9.2,3.5l-4.8,11.4c-2.6-1.4-5.2-2.5-7.7-3.2c-2.5-0.7-5-1.1-7.4-1.1c-2.1,0-3.8,0.2-5.1,0.7
				c-1.3,0.4-2.2,1-2.8,1.8c-0.6,0.7-0.9,1.6-0.9,2.5c0,1.2,0.6,2.1,1.7,2.8c1.1,0.7,2.6,1.3,4.4,1.7c1.8,0.4,3.9,0.9,6.1,1.4
				c2.2,0.5,4.4,1.1,6.6,1.8c2.2,0.7,4.2,1.6,6,2.8c1.8,1.2,3.3,2.7,4.4,4.6c1.1,1.9,1.7,4.3,1.7,7.1c0,3.2-0.9,6.1-2.7,8.8
				c-1.8,2.7-4.5,4.8-8,6.4C200.6,556.7,196.1,557.5,190.7,557.5z"/>
			<path class="st1" d="M242.8,557.2c-4.7,0-8.8-0.9-12.5-2.8c-3.7-1.9-6.5-4.4-8.6-7.7c-2.1-3.3-3.1-7.1-3.1-11.3
				c0-4.3,1-8,3.1-11.3c2.1-3.3,4.9-5.8,8.6-7.7c3.7-1.8,7.8-2.8,12.5-2.8c4.8,0,8.9,1,12.4,3c3.5,2,5.9,4.9,7.4,8.6l-11.4,5.8
				c-1-2-2.2-3.4-3.7-4.3c-1.5-0.9-3-1.4-4.8-1.4s-3.3,0.4-4.7,1.2c-1.4,0.8-2.5,1.9-3.3,3.4c-0.8,1.5-1.2,3.3-1.2,5.4
				c0,2.2,0.4,4,1.2,5.5c0.8,1.5,1.9,2.6,3.3,3.4c1.4,0.8,3,1.2,4.7,1.2s3.3-0.5,4.8-1.4c1.5-0.9,2.7-2.3,3.7-4.3l11.4,5.8
				c-1.5,3.7-3.9,6.5-7.4,8.6C251.7,556.1,247.5,557.2,242.8,557.2z"/>
			<path class="st1" d="M281.5,557.2c-3.4,0-6.2-0.6-8.6-1.7c-2.3-1.1-4.1-2.7-5.3-4.7c-1.2-2-1.8-4.2-1.8-6.6c0-2.6,0.7-4.8,2-6.7
				c1.3-1.9,3.4-3.3,6.1-4.4c2.7-1,6.3-1.5,10.7-1.5h10v7.7h-7.9c-2.4,0-4.1,0.4-5,1.2c-1,0.8-1.4,1.8-1.4,3.1
				c0,1.3,0.5,2.3,1.5,3.1c1,0.8,2.3,1.2,4,1.2c1.6,0,3.1-0.4,4.4-1.2c1.3-0.8,2.3-2,2.9-3.7l2,5.4c-0.8,2.9-2.3,5.1-4.6,6.6
				C288.1,556.4,285.1,557.2,281.5,557.2z M293.9,556.5v-7.9l-1-1.9v-14.5c0-2.3-0.7-4.1-2.1-5.4c-1.4-1.3-3.7-1.9-6.8-1.9
				c-2,0-4.1,0.3-6.2,1c-2.1,0.6-3.8,1.5-5.3,2.7l-5-10c2.4-1.6,5.3-2.8,8.6-3.6c3.3-0.9,6.7-1.3,10-1.3c6.8,0,12.2,1.6,15.9,4.7
				c3.8,3.1,5.6,8.1,5.6,14.8v23.4H293.9z"/>
			<path class="st1" d="M317,556.5v-57.8h14.8v57.8H317z"/>
			<path class="st1" d="M341.4,571.6v-57.3h14.1v7.2l-0.1,13.9l0.8,14v22.2H341.4z M367.9,557.2c-3.6,0-6.6-0.8-9.2-2.4
				c-2.5-1.6-4.5-4-5.8-7.2s-2-7.3-2-12.3c0-5,0.6-9.1,1.9-12.3s3.1-5.6,5.6-7.1c2.5-1.6,5.7-2.3,9.5-2.3c3.8,0,7.3,0.9,10.5,2.7
				c3.1,1.8,5.6,4.3,7.5,7.6c1.8,3.2,2.8,7.1,2.8,11.6c0,4.5-0.9,8.3-2.8,11.6c-1.8,3.3-4.3,5.8-7.5,7.6
				C375.3,556.3,371.8,557.2,367.9,557.2z M364.8,545.4c1.7,0,3.2-0.4,4.5-1.2c1.3-0.8,2.4-1.9,3.2-3.4c0.8-1.5,1.2-3.3,1.2-5.4
				c0-2.1-0.4-3.9-1.2-5.4c-0.8-1.5-1.9-2.6-3.2-3.4c-1.3-0.8-2.8-1.2-4.5-1.2c-1.7,0-3.1,0.4-4.5,1.2c-1.3,0.8-2.4,1.9-3.2,3.4
				c-0.8,1.5-1.2,3.3-1.2,5.4c0,2.1,0.4,3.9,1.2,5.4c0.8,1.5,1.9,2.6,3.2,3.4C361.7,545,363.2,545.4,364.8,545.4z"/>
			<path class="st1" d="M418.8,556.5V502h15.4v54.5H418.8z M433.2,535.2v-12.8h23.2v12.8H433.2z M455.3,556.5V502h15.4v54.5H455.3z"
				/>
			<path class="st1" d="M503,557.2c-5,0-9.3-0.9-13-2.8c-3.7-1.9-6.6-4.5-8.6-7.8c-2.1-3.3-3.1-7-3.1-11.2c0-4.2,1-8,3-11.2
				c2-3.3,4.8-5.9,8.3-7.7c3.5-1.8,7.5-2.8,11.9-2.8c4.1,0,7.9,0.8,11.4,2.5c3.4,1.7,6.1,4.2,8.2,7.4c2,3.3,3,7.2,3,11.9
				c0,0.5,0,1.1-0.1,1.8c-0.1,0.7-0.1,1.3-0.2,1.9h-33.4v-7.8h25.5l-5.6,2.2c0.1-1.9-0.3-3.6-1-5c-0.8-1.4-1.8-2.5-3.1-3.3
				s-2.9-1.2-4.6-1.2c-1.8,0-3.3,0.4-4.6,1.2s-2.4,1.9-3.1,3.3c-0.7,1.4-1.1,3.1-1.1,5v2.3c0,2.1,0.4,3.9,1.3,5.4
				c0.9,1.5,2.1,2.7,3.7,3.5c1.6,0.8,3.5,1.2,5.8,1.2c2.1,0,3.9-0.3,5.3-0.9c1.5-0.6,2.9-1.5,4.4-2.8l7.8,8.1
				c-2,2.2-4.5,3.9-7.5,5.1C510.6,556.6,507.1,557.2,503,557.2z"/>
			<path class="st1" d="M543,557.2c-3.4,0-6.2-0.6-8.6-1.7c-2.3-1.1-4.1-2.7-5.3-4.7c-1.2-2-1.8-4.2-1.8-6.6c0-2.6,0.7-4.8,2-6.7
				c1.3-1.9,3.4-3.3,6.1-4.4c2.7-1,6.3-1.5,10.7-1.5h10v7.7h-7.9c-2.4,0-4.1,0.4-5,1.2c-1,0.8-1.4,1.8-1.4,3.1
				c0,1.3,0.5,2.3,1.5,3.1c1,0.8,2.3,1.2,4,1.2c1.6,0,3.1-0.4,4.4-1.2c1.3-0.8,2.3-2,2.9-3.7l2,5.4c-0.8,2.9-2.3,5.1-4.6,6.6
				C549.7,556.4,546.7,557.2,543,557.2z M555.5,556.5v-7.9l-1-1.9v-14.5c0-2.3-0.7-4.1-2.1-5.4c-1.4-1.3-3.7-1.9-6.8-1.9
				c-2,0-4.1,0.3-6.2,1c-2.1,0.6-3.8,1.5-5.3,2.7l-5-10c2.4-1.6,5.3-2.8,8.6-3.6c3.3-0.9,6.7-1.3,10-1.3c6.8,0,12.2,1.6,15.9,4.7
				c3.8,3.1,5.6,8.1,5.6,14.8v23.4H555.5z"/>
			<path class="st1" d="M578.6,556.5v-57.8h14.8v57.8H578.6z"/>
			<path class="st1" d="M598.5,525.2v-11h30.6v11H598.5z M621.8,557.2c-5.4,0-9.6-1.3-12.6-4c-3-2.7-4.5-6.7-4.5-12.1v-36.2h14.8v36
				c0,1.5,0.4,2.7,1.2,3.5c0.8,0.9,1.9,1.3,3.2,1.3c1.8,0,3.3-0.4,4.5-1.3l3.7,10.4c-1.2,0.8-2.8,1.4-4.6,1.8
				C625.7,557,623.8,557.2,621.8,557.2z"/>
			<path class="st1" d="M637.8,556.5v-57.8h14.8v27.6l-3.4-3.5c1.6-3.1,3.8-5.4,6.6-6.9c2.8-1.5,6-2.3,9.5-2.3c3.3,0,6.2,0.7,8.9,2
				c2.6,1.3,4.7,3.4,6.3,6.1c1.5,2.8,2.3,6.3,2.3,10.7v24.1h-14.8v-21.7c0-3-0.6-5.2-1.8-6.6c-1.2-1.4-2.9-2.1-5.1-2.1
				c-1.6,0-3,0.4-4.3,1.1c-1.3,0.7-2.3,1.8-3,3.2c-0.7,1.5-1.1,3.3-1.1,5.7v20.4H637.8z"/>
		</g>
		<g>
			<path class="st0" d="M258.5,638.3l24.1-54.5h15.2l24.1,54.5h-16L287,591.3h6.1l-18.8,46.9H258.5z M271.7,627.7l4-11.4h26.6
				l4,11.4H271.7z"/>
			<path class="st0" d="M325.6,638.3v-57.8h14.8v57.8H325.6z"/>
			<path class="st0" d="M349.9,638.3v-57.8h14.8v57.8H349.9z"/>
			<path class="st0" d="M381.7,591.4c-2.7,0-4.9-0.8-6.5-2.3c-1.7-1.5-2.5-3.4-2.5-5.6c0-2.2,0.8-4.1,2.5-5.6
				c1.7-1.5,3.8-2.3,6.5-2.3c2.7,0,4.9,0.7,6.5,2.1c1.7,1.4,2.5,3.3,2.5,5.5c0,2.3-0.8,4.3-2.5,5.8
				C386.6,590.6,384.4,591.4,381.7,591.4z M374.3,638.3v-42.2h14.8v42.2H374.3z"/>
			<path class="st0" d="M412,639c-3.4,0-6.2-0.6-8.6-1.7c-2.3-1.1-4.1-2.7-5.3-4.7c-1.2-2-1.8-4.2-1.8-6.6c0-2.6,0.7-4.8,2-6.7
				c1.3-1.9,3.4-3.3,6.1-4.4c2.7-1,6.3-1.5,10.7-1.5h10v7.7H417c-2.4,0-4.1,0.4-5,1.2c-1,0.8-1.4,1.8-1.4,3.1c0,1.3,0.5,2.3,1.5,3.1
				c1,0.8,2.3,1.2,4,1.2c1.6,0,3.1-0.4,4.4-1.2c1.3-0.8,2.3-2,2.9-3.7l2,5.4c-0.8,2.9-2.3,5.1-4.6,6.6
				C418.6,638.2,415.6,639,412,639z M424.4,638.3v-7.9l-1-1.9V614c0-2.3-0.7-4.1-2.1-5.4c-1.4-1.3-3.7-1.9-6.8-1.9
				c-2,0-4.1,0.3-6.2,1c-2.1,0.6-3.8,1.5-5.3,2.7l-5-10c2.4-1.6,5.3-2.8,8.6-3.6c3.3-0.9,6.7-1.3,10-1.3c6.8,0,12.2,1.6,15.9,4.7
				c3.8,3.1,5.6,8.1,5.6,14.8v23.4H424.4z"/>
			<path class="st0" d="M447.5,638.3v-42.2h14.1v12l-2.7-3.5c1.6-3.1,3.8-5.4,6.6-6.9c2.8-1.5,6-2.3,9.5-2.3c3.3,0,6.2,0.7,8.9,2
				c2.6,1.3,4.7,3.4,6.3,6.1c1.5,2.8,2.3,6.3,2.3,10.7v24.1h-14.8v-21.7c0-3-0.6-5.2-1.8-6.6c-1.2-1.4-2.9-2.1-5.1-2.1
				c-1.6,0-3,0.4-4.3,1.1c-1.3,0.7-2.3,1.8-3,3.2c-0.7,1.5-1.1,3.3-1.1,5.7v20.4H447.5z"/>
			<path class="st0" d="M523.8,639c-4.7,0-8.8-0.9-12.5-2.8c-3.7-1.9-6.5-4.4-8.6-7.7c-2.1-3.3-3.1-7.1-3.1-11.3c0-4.3,1-8,3.1-11.3
				c2.1-3.3,4.9-5.8,8.6-7.7c3.7-1.8,7.8-2.8,12.5-2.8c4.8,0,8.9,1,12.4,3c3.5,2,5.9,4.9,7.4,8.6l-11.4,5.8c-1-2-2.2-3.4-3.7-4.3
				c-1.5-0.9-3-1.4-4.8-1.4c-1.7,0-3.3,0.4-4.7,1.2c-1.4,0.8-2.5,1.9-3.3,3.4c-0.8,1.5-1.2,3.3-1.2,5.4c0,2.2,0.4,4,1.2,5.5
				c0.8,1.5,1.9,2.6,3.3,3.4c1.4,0.8,3,1.2,4.7,1.2c1.7,0,3.3-0.5,4.8-1.4c1.5-0.9,2.7-2.3,3.7-4.3l11.4,5.8
				c-1.5,3.7-3.9,6.5-7.4,8.6C532.7,638,528.6,639,523.8,639z"/>
			<path class="st0" d="M570.8,639c-5,0-9.3-0.9-13-2.8c-3.7-1.9-6.6-4.5-8.6-7.8c-2.1-3.3-3.1-7-3.1-11.2c0-4.2,1-8,3-11.2
				c2-3.3,4.8-5.9,8.3-7.7c3.5-1.8,7.5-2.8,11.9-2.8c4.1,0,7.9,0.8,11.4,2.5c3.4,1.7,6.1,4.2,8.2,7.4c2,3.3,3,7.2,3,11.9
				c0,0.5,0,1.1-0.1,1.8c-0.1,0.7-0.1,1.3-0.2,1.9h-33.4v-7.8h25.5l-5.6,2.2c0.1-1.9-0.3-3.6-1-5c-0.8-1.4-1.8-2.5-3.1-3.3
				s-2.9-1.2-4.6-1.2c-1.8,0-3.3,0.4-4.6,1.2s-2.4,1.9-3.1,3.3c-0.7,1.4-1.1,3.1-1.1,5v2.3c0,2.1,0.4,3.9,1.3,5.4
				c0.9,1.5,2.1,2.7,3.7,3.5c1.6,0.8,3.5,1.2,5.8,1.2c2.1,0,3.9-0.3,5.3-0.9c1.5-0.6,2.9-1.5,4.4-2.8l7.8,8.1
				c-2,2.2-4.5,3.9-7.5,5.1C578.4,638.4,574.9,639,570.8,639z"/>
		</g>
	</g>
</g>
<g id="Layer_2" class="st2">
	<g class="st3">
		<path class="st1" d="M731.7,508.5H613.8c-6.4,0-11.6-5.2-11.6-11.6v-15.1c0-6.4,5.2-11.6,11.6-11.6h117.9
			c6.4,0,11.6,5.2,11.6,11.6V497C743.2,503.3,738,508.5,731.7,508.5z"/>
		<g>
			<path class="st4" d="M612,493.7l-2.8-8.5h2.5l2.3,7.4h-1.3l2.4-7.4h2.2l2.3,7.4h-1.2l2.4-7.4h2.3l-2.8,8.5h-2.6l-2-6.3h0.7
				l-2.1,6.3H612z"/>
			<path class="st4" d="M624.4,493.7v-8.5h6.7v1.9h-4.3v4.8h4.4v1.9H624.4z M626.7,490.3v-1.8h4v1.8H626.7z"/>
			<path class="st4" d="M633,493.7v-8.5h2.4v6.6h4.1v1.9H633z"/>
			<path class="st4" d="M640.8,493.7v-8.5h2.4v6.6h4.1v1.9H640.8z"/>
			<path class="st4" d="M648.5,493.7v-8.5h2l4.7,5.7h-0.9v-5.7h2.4v8.5h-2L650,488h0.9v5.7H648.5z"/>
			<path class="st4" d="M658.7,493.7v-8.5h6.7v1.9h-4.3v4.8h4.4v1.9H658.7z M660.9,490.3v-1.8h4v1.8H660.9z"/>
			<path class="st4" d="M670.2,493.8c-0.7,0-1.4-0.1-2-0.3c-0.6-0.2-1.2-0.4-1.6-0.7l0.8-1.8c0.4,0.2,0.8,0.4,1.3,0.6
				c0.5,0.2,1,0.2,1.5,0.2c0.3,0,0.6,0,0.8-0.1c0.2-0.1,0.4-0.1,0.4-0.2c0.1-0.1,0.1-0.2,0.1-0.4c0-0.2-0.1-0.3-0.3-0.5
				c-0.2-0.1-0.4-0.2-0.7-0.3c-0.3-0.1-0.6-0.1-0.9-0.2c-0.3-0.1-0.7-0.2-1-0.3c-0.3-0.1-0.7-0.3-0.9-0.4c-0.3-0.2-0.5-0.4-0.7-0.7
				c-0.2-0.3-0.3-0.7-0.3-1.1c0-0.5,0.1-1,0.4-1.4c0.3-0.4,0.7-0.7,1.3-1c0.6-0.3,1.3-0.4,2.1-0.4c0.6,0,1.1,0.1,1.6,0.2
				c0.5,0.1,1,0.3,1.4,0.6l-0.7,1.8c-0.4-0.2-0.8-0.4-1.2-0.5c-0.4-0.1-0.8-0.2-1.2-0.2c-0.3,0-0.6,0-0.8,0.1
				c-0.2,0.1-0.3,0.2-0.4,0.3c-0.1,0.1-0.1,0.2-0.1,0.4c0,0.2,0.1,0.3,0.3,0.4c0.2,0.1,0.4,0.2,0.7,0.3c0.3,0.1,0.6,0.1,0.9,0.2
				c0.3,0.1,0.7,0.2,1,0.3c0.3,0.1,0.7,0.3,0.9,0.4c0.3,0.2,0.5,0.4,0.7,0.7c0.2,0.3,0.3,0.7,0.3,1.1c0,0.5-0.1,1-0.4,1.4
				c-0.3,0.4-0.7,0.8-1.3,1C671.8,493.7,671.1,493.8,670.2,493.8z"/>
			<path class="st4" d="M678.5,493.8c-0.7,0-1.4-0.1-2-0.3c-0.6-0.2-1.2-0.4-1.6-0.7l0.8-1.8c0.4,0.2,0.8,0.4,1.3,0.6
				c0.5,0.2,1,0.2,1.5,0.2c0.3,0,0.6,0,0.8-0.1c0.2-0.1,0.4-0.1,0.4-0.2c0.1-0.1,0.1-0.2,0.1-0.4c0-0.2-0.1-0.3-0.3-0.5
				c-0.2-0.1-0.4-0.2-0.7-0.3c-0.3-0.1-0.6-0.1-0.9-0.2c-0.3-0.1-0.7-0.2-1-0.3c-0.3-0.1-0.7-0.3-0.9-0.4c-0.3-0.2-0.5-0.4-0.7-0.7
				c-0.2-0.3-0.3-0.7-0.3-1.1c0-0.5,0.1-1,0.4-1.4c0.3-0.4,0.7-0.7,1.3-1c0.6-0.3,1.3-0.4,2.1-0.4c0.6,0,1.1,0.1,1.6,0.2
				c0.5,0.1,1,0.3,1.4,0.6l-0.7,1.8c-0.4-0.2-0.8-0.4-1.2-0.5c-0.4-0.1-0.8-0.2-1.2-0.2c-0.3,0-0.6,0-0.8,0.1
				c-0.2,0.1-0.3,0.2-0.4,0.3c-0.1,0.1-0.1,0.2-0.1,0.4c0,0.2,0.1,0.3,0.3,0.4c0.2,0.1,0.4,0.2,0.7,0.3c0.3,0.1,0.6,0.1,0.9,0.2
				c0.3,0.1,0.7,0.2,1,0.3c0.3,0.1,0.7,0.3,0.9,0.4c0.3,0.2,0.5,0.4,0.7,0.7c0.2,0.3,0.3,0.7,0.3,1.1c0,0.5-0.1,1-0.4,1.4
				c-0.3,0.4-0.7,0.8-1.3,1C680,493.7,679.3,493.8,678.5,493.8z"/>
			<path class="st4" d="M694.3,493.8l-5.1-4.5c-0.3-0.2-0.5-0.5-0.7-0.7c-0.2-0.2-0.3-0.5-0.4-0.7c-0.1-0.2-0.1-0.5-0.1-0.7
				c0-0.4,0.1-0.8,0.4-1.1c0.2-0.3,0.6-0.6,1-0.8s0.9-0.3,1.5-0.3c0.5,0,1,0.1,1.4,0.2c0.4,0.2,0.7,0.4,0.9,0.7
				c0.2,0.3,0.3,0.7,0.3,1.1c0,0.4-0.1,0.7-0.3,1c-0.2,0.3-0.5,0.6-0.9,0.9c-0.4,0.3-0.9,0.5-1.5,0.8c-0.4,0.2-0.7,0.3-0.9,0.5
				c-0.2,0.2-0.4,0.3-0.5,0.5c-0.1,0.2-0.1,0.3-0.1,0.5c0,0.2,0.1,0.3,0.2,0.4c0.1,0.1,0.3,0.2,0.4,0.3c0.2,0.1,0.4,0.1,0.7,0.1
				c0.5,0,0.9-0.1,1.3-0.3c0.4-0.2,0.7-0.6,1-1c0.3-0.4,0.5-1,0.6-1.6l1.9,0.6c-0.2,0.8-0.5,1.6-1,2.2c-0.5,0.6-1,1.1-1.7,1.5
				c-0.7,0.4-1.4,0.5-2.3,0.5c-0.6,0-1.2-0.1-1.7-0.3c-0.5-0.2-0.9-0.5-1.2-0.9c-0.3-0.4-0.4-0.8-0.4-1.2c0-0.4,0.1-0.8,0.3-1.2
				c0.2-0.3,0.5-0.7,0.9-1c0.4-0.3,1-0.6,1.6-0.8c0.4-0.2,0.8-0.4,1-0.5c0.2-0.1,0.4-0.3,0.5-0.4c0.1-0.1,0.2-0.3,0.2-0.4
				c0-0.2-0.1-0.3-0.2-0.4c-0.1-0.1-0.3-0.2-0.5-0.2c-0.2,0-0.4,0.1-0.6,0.2c-0.1,0.1-0.2,0.3-0.2,0.4c0,0.1,0,0.2,0.1,0.3
				c0,0.1,0.1,0.2,0.3,0.4c0.1,0.1,0.3,0.3,0.6,0.5l4.5,4L694.3,493.8z"/>
			<path class="st4" d="M705.2,493.8c-0.7,0-1.3-0.1-1.9-0.3s-1.1-0.5-1.5-0.9c-0.4-0.4-0.7-0.9-1-1.4c-0.2-0.5-0.4-1.1-0.4-1.8
				c0-0.6,0.1-1.2,0.4-1.8c0.2-0.5,0.6-1,1-1.4c0.4-0.4,0.9-0.7,1.5-0.9c0.6-0.2,1.2-0.3,1.9-0.3c0.8,0,1.5,0.1,2.1,0.4
				c0.6,0.3,1.1,0.7,1.5,1.2l-1.5,1.4c-0.3-0.3-0.6-0.6-0.9-0.7c-0.3-0.2-0.7-0.3-1.1-0.3c-0.3,0-0.7,0.1-1,0.2
				c-0.3,0.1-0.5,0.3-0.7,0.5c-0.2,0.2-0.4,0.5-0.5,0.8c-0.1,0.3-0.2,0.6-0.2,1c0,0.4,0.1,0.7,0.2,1c0.1,0.3,0.3,0.6,0.5,0.8
				c0.2,0.2,0.5,0.4,0.7,0.5c0.3,0.1,0.6,0.2,1,0.2c0.4,0,0.8-0.1,1.1-0.3c0.3-0.2,0.6-0.4,0.9-0.7l1.5,1.4
				c-0.4,0.5-0.9,0.9-1.5,1.2C706.7,493.7,706,493.8,705.2,493.8z"/>
			<path class="st4" d="M709.1,493.7l3.8-8.5h2.4l3.8,8.5h-2.5l-2.9-7.3h0.9l-2.9,7.3H709.1z M711.1,492l0.6-1.8h4.2l0.6,1.8H711.1z
				"/>
			<path class="st4" d="M720,493.7v-8.5h3.8c1.2,0,2.2,0.3,2.9,0.8c0.7,0.6,1,1.3,1,2.3c0,0.6-0.2,1.2-0.5,1.7
				c-0.3,0.5-0.7,0.8-1.3,1.1c-0.6,0.2-1.2,0.4-2,0.4h-2.6l1.1-1v3.3H720z M722.4,490.7l-1.1-1.1h2.4c0.5,0,0.9-0.1,1.1-0.3
				s0.4-0.5,0.4-0.9c0-0.4-0.1-0.7-0.4-0.9s-0.6-0.3-1.1-0.3h-2.4l1.1-1.1V490.7z M725.3,493.7l-2.1-3.1h2.6l2.1,3.1H725.3z"/>
			<path class="st4" d="M729.4,493.7v-8.5h6.7v1.9h-4.3v4.8h4.4v1.9H729.4z M731.6,490.3v-1.8h4v1.8H731.6z"/>
		</g>
	</g>
</g>
</svg>
